# ProBuilder 4.5.2
# https://unity3d.com/unity/features/worldbuilding/probuilder
# 11/26/2021 8:20:57 PM

mtllib ./Ceiling.mtl
o Ceiling

g Ceiling
v -0.5 -0.5 0.5
v -0.5 0.5 0.5
v 0.5 0.5 0.5
v 0.5 -0.5 0.5
v -0.5 0.5 -0.5
v 0.5 0.5 -0.5
v -0.5 -0.5 -0.5
v 0.5 -0.5 -0.5
v -0.3688358 -6.620007 0.3247095
v -0.3688358 -5.619984 0.3247095
v 0.3930689 -5.619984 0.3247095
v 0.3930689 -6.620007 0.3247095
v -0.3688358 -5.619984 0.2622104
v 0.3930689 -5.619984 0.2622104
v -0.3688358 -6.620007 0.2622104
v 0.3930689 -6.620007 0.2622104
v 0.007354623 -5.619984 -0.07466547
v 0.007354623 -0.6199837 -0.07466547
v 0.01687842 -0.6199837 -0.07466547
v 0.01687842 -5.619984 -0.07466547
v 0.007354623 -0.6199837 -0.08716337
v 0.01687842 -0.6199837 -0.08716337
v 0.007354623 -5.619984 -0.08716337
v 0.01687842 -5.619984 -0.08716337
v -0.3688358 -6.620007 -0.0496649
v -0.3688358 -5.619984 -0.0496649
v 0.3930689 -5.619984 -0.0496649
v 0.3930689 -6.620007 -0.0496649
v -0.3688358 -5.619984 -0.1121639
v 0.3930689 -5.619984 -0.1121639
v -0.3688358 -6.620007 -0.1121639
v 0.3930689 -6.620007 -0.1121639
v 0.007354623 -5.619984 -0.3352904
v 0.007354623 -0.6199837 -0.3352904
v 0.01687842 -0.6199837 -0.3352904
v 0.01687842 -5.619984 -0.3352904
v 0.007354623 -0.6199837 -0.3477883
v 0.01687842 -0.6199837 -0.3477883
v 0.007354623 -5.619984 -0.3477883
v 0.01687842 -5.619984 -0.3477883
v 0.007354623 -5.619984 0.2997089
v 0.007354623 -0.6199837 0.2997089
v 0.01687842 -0.6199837 0.2997089
v 0.01687842 -5.619984 0.2997089
v 0.007354623 -0.6199837 0.287211
v 0.01687842 -0.6199837 0.287211
v 0.007354623 -5.619984 0.287211
v 0.01687842 -5.619984 0.287211
v 0.007354623 -5.619984 0.1115847
v 0.007354623 -0.6199837 0.1115847
v 0.01687842 -0.6199837 0.1115847
v 0.01687842 -5.619984 0.1115847
v 0.007354623 -0.6199837 0.09908684
v 0.01687842 -0.6199837 0.09908684
v 0.007354623 -5.619984 0.09908684
v 0.01687842 -5.619984 0.09908684
v -0.3688358 -6.620007 0.1365853
v -0.3688358 -5.619984 0.1365853
v 0.3930689 -5.619984 0.1365853
v 0.3930689 -6.620007 0.1365853
v -0.3688358 -5.619984 0.07408626
v 0.3930689 -5.619984 0.07408626
v -0.3688358 -6.620007 0.07408626
v 0.3930689 -6.620007 0.07408626
v -0.3688358 -6.620007 -0.3102898
v -0.3688358 -5.619984 -0.3102898
v 0.3930689 -5.619984 -0.3102898
v 0.3930689 -6.620007 -0.3102898
v -0.3688358 -5.619984 -0.3727888
v 0.3930689 -5.619984 -0.3727888
v -0.3688358 -6.620007 -0.3727888
v 0.3930689 -6.620007 -0.3727888

vt 0 0
vt 0 1
vt 1 1
vt 1 0

vn 0 0 1
vn 0 1 0
vn 0 0 -1
vn 0 -1 0
vn 1 0 0
vn -1 0 0

usemtl ceiling_material
f 4/4/1 3/3/1 2/2/1 1/1/1
f 3/4/2 6/3/2 5/2/2 2/1/2
f 6/4/3 8/3/3 7/2/3 5/1/3
f 8/4/4 4/3/4 1/2/4 7/1/4
f 8/4/5 6/3/5 3/2/5 4/1/5
f 1/4/6 2/3/6 5/2/6 7/1/6

usemtl ceiling_white
f 12/4/1 11/3/1 10/2/1 9/1/1
f 11/4/2 14/3/2 13/2/2 10/1/2
f 14/4/3 16/3/3 15/2/3 13/1/3
f 16/4/4 12/3/4 9/2/4 15/1/4
f 16/4/5 14/3/5 11/2/5 12/1/5
f 9/4/6 10/3/6 13/2/6 15/1/6
f 20/4/1 19/3/1 18/2/1 17/1/1
f 19/4/2 22/3/2 21/2/2 18/1/2
f 22/4/3 24/3/3 23/2/3 21/1/3
f 24/4/4 20/3/4 17/2/4 23/1/4
f 24/4/5 22/3/5 19/2/5 20/1/5
f 17/4/6 18/3/6 21/2/6 23/1/6
f 28/4/1 27/3/1 26/2/1 25/1/1
f 27/4/2 30/3/2 29/2/2 26/1/2
f 30/4/3 32/3/3 31/2/3 29/1/3
f 32/4/4 28/3/4 25/2/4 31/1/4
f 32/4/5 30/3/5 27/2/5 28/1/5
f 25/4/6 26/3/6 29/2/6 31/1/6
f 36/4/1 35/3/1 34/2/1 33/1/1
f 35/4/2 38/3/2 37/2/2 34/1/2
f 38/4/3 40/3/3 39/2/3 37/1/3
f 40/4/4 36/3/4 33/2/4 39/1/4
f 40/4/5 38/3/5 35/2/5 36/1/5
f 33/4/6 34/3/6 37/2/6 39/1/6
f 44/4/1 43/3/1 42/2/1 41/1/1
f 43/4/2 46/3/2 45/2/2 42/1/2
f 46/4/3 48/3/3 47/2/3 45/1/3
f 48/4/4 44/3/4 41/2/4 47/1/4
f 48/4/5 46/3/5 43/2/5 44/1/5
f 41/4/6 42/3/6 45/2/6 47/1/6
f 52/4/1 51/3/1 50/2/1 49/1/1
f 51/4/2 54/3/2 53/2/2 50/1/2
f 54/4/3 56/3/3 55/2/3 53/1/3
f 56/4/4 52/3/4 49/2/4 55/1/4
f 56/4/5 54/3/5 51/2/5 52/1/5
f 49/4/6 50/3/6 53/2/6 55/1/6
f 60/4/1 59/3/1 58/2/1 57/1/1
f 59/4/2 62/3/2 61/2/2 58/1/2
f 62/4/3 64/3/3 63/2/3 61/1/3
f 64/4/4 60/3/4 57/2/4 63/1/4
f 64/4/5 62/3/5 59/2/5 60/1/5
f 57/4/6 58/3/6 61/2/6 63/1/6
f 68/4/1 67/3/1 66/2/1 65/1/1
f 67/4/2 70/3/2 69/2/2 66/1/2
f 70/4/3 72/3/3 71/2/3 69/1/3
f 72/4/4 68/3/4 65/2/4 71/1/4
f 72/4/5 70/3/5 67/2/5 68/1/5
f 65/4/6 66/3/6 69/2/6 71/1/6

